<svg width="47" height="47" viewBox="0 0 47 47" fill="none" xmlns="http://www.w3.org/2000/svg">
<path d="M23.5005 7.52002C32.3363 7.52027 39.48 14.6646 39.48 23.5005C39.4797 32.3361 32.3361 39.4797 23.5005 39.48C14.6646 39.48 7.52027 32.3363 7.52002 23.5005C7.52002 14.6645 14.6645 7.52002 23.5005 7.52002ZM23.5005 9.3999C15.6985 9.3999 9.3999 15.6985 9.3999 23.5005C9.40015 31.3023 15.6986 37.6001 23.5005 37.6001C31.3021 37.5998 37.5998 31.3021 37.6001 23.5005C37.6001 15.6986 31.3023 9.40015 23.5005 9.3999Z" fill="#D47609"/>
<path d="M23.5005 7.52002C32.3363 7.52027 39.48 14.6646 39.48 23.5005C39.4797 32.3361 32.3361 39.4797 23.5005 39.48C14.6646 39.48 7.52027 32.3363 7.52002 23.5005C7.52002 14.6645 14.6645 7.52002 23.5005 7.52002ZM23.5005 9.3999C15.6985 9.3999 9.3999 15.6985 9.3999 23.5005C9.40015 31.3023 15.6986 37.6001 23.5005 37.6001C31.3021 37.5998 37.5998 31.3021 37.6001 23.5005C37.6001 15.6986 31.3023 9.40015 23.5005 9.3999Z" stroke="#D47609"/>
<path d="M22.5601 30.08H24.4401V31.96H22.5601V30.08ZM24.0641 28.2H22.9361L22.5601 20.68V15.04H24.4401V20.68L24.0641 28.2Z" fill="#D47609"/>
</svg>
