<svg width="111" height="111" viewBox="0 0 111 111" fill="none" xmlns="http://www.w3.org/2000/svg">
<rect width="111" height="111" rx="15" fill="#EFFDF6"/>
<path d="M62.4373 48.5628L49.7667 52.7253L47.1748 50.1334L58.6411 40.2378H63.8248L72.1498 44.4003L79.0873 45.7878V63.8253L73.5373 65.2128H60.7002" stroke="#34966A" stroke-width="3" stroke-miterlimit="10" stroke-linecap="round" stroke-linejoin="round"/>
<path d="M31.9124 61.0501L39.1191 62.4376L50.0859 73.4016L54.8283 72.5858L55.6442 67.8433L60.3867 67.0247L61.2053 62.2822L65.945 61.4663L66.7636 56.7239L59.5514 49.5116M54.1512 44.1115L48.8898 38.8501L38.8499 43.0126L31.9124 44.4001M31.9124 40.2376H23.5874V65.2126H31.9124V40.2376ZM87.4124 43.0126H79.0874V67.9876H87.4124V43.0126Z" stroke="#34966A" stroke-width="3" stroke-miterlimit="10" stroke-linejoin="round"/>
</svg>
