<svg width="43" height="43" viewBox="0 0 43 43" fill="none" xmlns="http://www.w3.org/2000/svg">
<path d="M21.5 30.9062C23.9947 30.9062 26.3872 29.9152 28.1512 28.1512C29.9152 26.3872 30.9062 23.9947 30.9062 21.5C30.9062 19.0053 29.9152 16.6128 28.1512 14.8488C26.3872 13.0848 23.9947 12.0938 21.5 12.0938C19.0053 12.0938 16.6128 13.0848 14.8488 14.8488C13.0848 16.6128 12.0938 19.0053 12.0938 21.5C12.0938 23.9947 13.0848 26.3872 14.8488 28.1512C16.6128 29.9152 19.0053 30.9062 21.5 30.9062Z" stroke="#34966A" stroke-width="1.5" stroke-linecap="round" stroke-linejoin="round"/>
<path d="M21.5 24.1875C22.2128 24.1875 22.8963 23.9044 23.4003 23.4003C23.9044 22.8963 24.1875 22.2128 24.1875 21.5C24.1875 20.7872 23.9044 20.1037 23.4003 19.5997C22.8963 19.0956 22.2128 18.8125 21.5 18.8125C20.7872 18.8125 20.1037 19.0956 19.5997 19.5997C19.0956 20.1037 18.8125 20.7872 18.8125 21.5C18.8125 22.2128 19.0956 22.8963 19.5997 23.4003C20.1037 23.9044 20.7872 24.1875 21.5 24.1875Z" stroke="#34966A" stroke-width="1.5" stroke-linecap="round" stroke-linejoin="round"/>
<path d="M37.625 21.5C37.625 23.6176 37.2079 25.7144 36.3976 27.6708C35.5872 29.6271 34.3994 31.4048 32.9021 32.9021C31.4048 34.3994 29.6271 35.5872 27.6708 36.3976C25.7144 37.2079 23.6176 37.625 21.5 37.625C19.3824 37.625 17.2856 37.2079 15.3292 36.3976C13.3729 35.5872 11.5952 34.3994 10.0979 32.9021C8.60056 31.4048 7.4128 29.6271 6.60244 27.6708C5.79209 25.7144 5.375 23.6176 5.375 21.5C5.375 17.2234 7.07388 13.1219 10.0979 10.0979C13.1219 7.07388 17.2234 5.375 21.5 5.375C25.7766 5.375 29.8781 7.07388 32.9021 10.0979C35.9261 13.1219 37.625 17.2234 37.625 21.5Z" stroke="#34966A" stroke-width="1.5" stroke-linecap="round" stroke-linejoin="round"/>
</svg>
